<?xml version="1.0" encoding="UTF-8" standalone="no"?>
<!-- Uploaded to: SVG Repo, www.svgrepo.com, Transformed by: SVG Repo Mixer Tools -->

<svg
   width="800px"
   height="800px"
   viewBox="-2.4 -2.4 28.80 28.80"
   fill="none"
   version="1.1"
   id="svg2"
   xmlns:xlink="http://www.w3.org/1999/xlink"
   xmlns="http://www.w3.org/2000/svg"
   xmlns:svg="http://www.w3.org/2000/svg">
  <defs
     id="defs2">
    <linearGradient
       id="linearGradient5">
      <stop
         style="stop-color:#d9d9d9;stop-opacity:1;"
         offset="0"
         id="stop6" />
      <stop
         style="stop-color:#e5e5e5;stop-opacity:1;"
         offset="1"
         id="stop7" />
    </linearGradient>
    <linearGradient
       id="linearGradient4">
      <stop
         style="stop-color:#ededed;stop-opacity:1;"
         offset="0"
         id="stop4" />
      <stop
         style="stop-color:#fcfcfc;stop-opacity:1;"
         offset="1"
         id="stop5" />
    </linearGradient>
    <radialGradient
       xlink:href="#linearGradient4"
       id="radialGradient5"
       cx="2.4563761"
       cy="12.232201"
       fx="2.4563761"
       fy="12.232201"
       r="7.5631323"
       gradientTransform="matrix(1.9099289,0.02032365,-0.01457944,1.3701133,-3.0551414,-0.901993)"
       gradientUnits="userSpaceOnUse" />
    <radialGradient
       xlink:href="#linearGradient5"
       id="radialGradient7"
       cx="12.617321"
       cy="11.977655"
       fx="12.617321"
       fy="11.977655"
       r="5.4015688"
       gradientTransform="matrix(1.6721946,-0.02845666,0.0326435,1.9182258,-9.4440824,-10.693649)"
       gradientUnits="userSpaceOnUse" />
  </defs>
  <g
     id="g4"
     style="fill:#f9f9f9;fill-opacity:1"
     transform="translate(0,3.6)">
    <path
       d="m 11.999999,4.9149015 1.895908,-2.1328722 c 1.002116,-1.1273553 2.763503,-1.1273553 3.765619,0 l 6.706091,7.5443747 c 0.848448,0.954378 0.848448,2.39281 0,3.347188 l -6.706091,7.544336 c -1.002116,1.127444 -2.763503,1.127444 -3.765619,0 l -1.895908,-2.132834"
       stroke="#000000"
       stroke-width="0.604595"
       stroke-linecap="round"
       stroke-linejoin="round"
       id="path4"
       style="fill:url(#radialGradient7);fill-opacity:1;stroke:#212121;stroke-opacity:1" />
  </g>
  <g
     id="layer1">
    <path
       d="m 16.810181,17.273592 -6.706091,7.544336 c -1.0020658,1.127444 -2.763553,1.127444 -3.7656438,0 l -6.70607824,-7.544336 c -0.84841036,-0.954378 -0.84841036,-2.39281 0,-3.347188 L 6.3384462,6.3820293 c 1.0020908,-1.1273553 2.763578,-1.1273553 3.7656438,0 l 6.706091,7.5443747 c 0.848448,0.954378 0.848448,2.39281 0,3.347188 z"
       stroke="#000000"
       stroke-width="0.604595"
       stroke-linecap="round"
       stroke-linejoin="round"
       id="path3"
       style="fill:url(#radialGradient5);fill-opacity:1;stroke:#212121;stroke-opacity:1" />
  </g>
</svg>
